<?xml version="1.0" encoding="utf-8"?>
<!-- Generator: Adobe Illustrator 24.1.1, SVG Export Plug-In . SVG Version: 6.00 Build 0)  -->
<svg version="1.1" id="Layer_1" xmlns="http://www.w3.org/2000/svg" xmlns:xlink="http://www.w3.org/1999/xlink" x="0px" y="0px"
	 viewBox="0 0 512 512" style="enable-background:new 0 0 512 512;" xml:space="preserve">
<style type="text/css">
	.st0{fill:#FFFFFF;stroke:#FFFFFF;stroke-miterlimit:10;}
</style>
<path class="st0" d="M416.7,66.6l-35.3-35.4C361.5,11.2,334.3-0.1,306,0H170.7C111.8,0.1,64.1,47.8,64,106.7v298.7
	c0.1,58.9,47.8,106.6,106.7,106.7h170.7c58.9-0.1,106.6-47.8,106.7-106.7V142C448.1,113.7,436.8,86.6,416.7,66.6L416.7,66.6z
	 M386.6,96.8c3,3,5.7,6.3,8.1,9.9h-53.3V53.3c3.6,2.4,6.9,5.1,9.9,8.1L386.6,96.8z M405.3,405.3c0,35.3-28.7,64-64,64H170.7
	c-35.3,0-64-28.7-64-64V106.7c0-35.3,28.7-64,64-64h128v64c0,23.6,19.1,42.7,42.7,42.7h64V405.3z M341.3,192
	c11.8,0,21.3,9.6,21.3,21.3s-9.6,21.3-21.3,21.3H170.7c-11.8,0-21.3-9.6-21.3-21.3s9.6-21.3,21.3-21.3H341.3z M362.7,298.7
	c0,11.8-9.6,21.3-21.3,21.3H170.7c-11.8,0-21.3-9.6-21.3-21.3c0-11.8,9.6-21.3,21.3-21.3h170.7C353.1,277.3,362.7,286.9,362.7,298.7
	z M358.6,371.5c6.9,9.5,4.8,22.8-4.6,29.7c-21.6,15.4-47.2,24.2-73.7,25.5c-15.5-0.1-30.5-5.3-42.7-14.9c-7-4.8-9.7-6.4-14.9-6.4
	c-14.3,2.2-27.7,8-39.1,16.9c-9.6,6.8-22.9,4.6-29.8-5c-6.5-9.1-4.8-21.8,3.9-28.9c18.8-14.6,41.4-23.5,65.1-25.7
	c14.2,0.2,27.9,5.1,39.1,14c5.1,4.6,11.6,7.2,18.4,7.4c17.4-1.3,34.2-7.3,48.6-17.3C338.3,359.8,351.7,362,358.6,371.5L358.6,371.5z
	"/>
</svg>
