<?xml version="1.0" encoding="utf-8"?>
<!-- Generator: Adobe Illustrator 24.1.1, SVG Export Plug-In . SVG Version: 6.00 Build 0)  -->
<svg version="1.1" id="Outline" xmlns="http://www.w3.org/2000/svg" xmlns:xlink="http://www.w3.org/1999/xlink" x="0px" y="0px"
	 viewBox="0 0 512 512" style="enable-background:new 0 0 512 512;" xml:space="preserve">
<style type="text/css">
	.st0{fill:#FFFFFF;}
</style>
<path class="st0" d="M192,256c70.7,0,128-57.3,128-128S262.7,0,192,0S64,57.3,64,128C64.1,198.7,121.3,255.9,192,256z M192,42.7
	c47.1,0,85.3,38.2,85.3,85.3s-38.2,85.3-85.3,85.3s-85.3-38.2-85.3-85.3S144.9,42.7,192,42.7z"/>
<path class="st0" d="M192,298.7c-106,0.1-191.9,86-192,192C0,502.4,9.6,512,21.3,512s21.3-9.6,21.3-21.3
	c0-82.5,66.9-149.3,149.3-149.3s149.3,66.9,149.3,149.3c0,11.8,9.6,21.3,21.3,21.3c11.8,0,21.3-9.6,21.3-21.3
	C383.9,384.7,298,298.8,192,298.7z"/>
<path class="st0" d="M469.3,168c-24.7,1.2-43.8,22.2-42.7,46.9c1.1-24.7-17.9-45.7-42.7-46.9c-24.7,1.2-43.8,22.2-42.7,46.9
	c0,36.9,48.1,80.1,72.1,99.4c7.7,6.2,18.7,6.2,26.5,0c24-19.2,72.1-62.5,72.1-99.4C513.1,190.2,494.1,169.2,469.3,168z"/>
</svg>
