<?xml version="1.0" encoding="utf-8"?>
<!-- Generator: Adobe Illustrator 24.1.1, SVG Export Plug-In . SVG Version: 6.00 Build 0)  -->
<svg version="1.1" id="Bold" xmlns="http://www.w3.org/2000/svg" xmlns:xlink="http://www.w3.org/1999/xlink" x="0px" y="0px"
	 viewBox="0 0 512 512" style="enable-background:new 0 0 512 512;" xml:space="preserve">
<style type="text/css">
	.st0{fill:#FFFFFF;}
</style>
<path class="st0" d="M368,39.5c-44.4,0.4-85.9,21.9-112,57.7c-26.1-35.9-67.6-57.3-112-57.7C61.5,42.8-2.9,112.1,0,194.7
	c0,97.1,99.7,201.1,183.5,271.2c42,35.3,103.3,35.3,145.3,0c83.7-70.1,183.5-174.1,183.5-271.2C515.1,112.1,450.6,42.7,368,39.5z
	 M287.5,416.8c-18.2,15.3-44.8,15.3-63,0C122.5,331.3,64,250.4,64,194.7c-2.8-47.2,32.8-87.9,80-91.2c47.2,3.3,82.8,44,80,91.2
	c0,17.7,14.3,32,32,32s32-14.3,32-32c-2.8-47.2,32.8-87.9,80-91.2c47.2,3.3,82.8,44,80,91.2C448,250.4,389.5,331.3,287.5,416.8z"/>
</svg>
