<?xml version="1.0" encoding="utf-8"?>
<!-- Generator: Adobe Illustrator 24.1.1, SVG Export Plug-In . SVG Version: 6.00 Build 0)  -->
<svg version="1.1" id="Layer_1" xmlns="http://www.w3.org/2000/svg" xmlns:xlink="http://www.w3.org/1999/xlink" x="0px" y="0px"
	 viewBox="0 0 512 512" style="enable-background:new 0 0 512 512;" xml:space="preserve">
<style type="text/css">
	.st0{fill:#FFFFFF;}
</style>
<path class="st0" d="M384,181.3c0,29.5-23.9,53.3-53.3,53.3s-53.3-23.9-53.3-53.3s23.9-53.3,53.3-53.3S384,151.9,384,181.3z
	 M383.9,327.8c-1.2,33.9-9.6,67.1-24.8,97.5c-28.5,53.9-84.7,87.4-145.7,86.7H192V394.7c-0.2-41.2-33.5-74.5-74.7-74.7H0v-21.3
	c-0.7-61,32.8-117.2,86.7-145.7c30.3-15.2,63.6-23.6,97.5-24.8C247.2,46.8,344.5-0.6,447.4,0l0,0c35.5-0.2,64.4,28.3,64.6,63.8
	c0,0.1,0,0.1,0,0.2C512.7,167.1,465.4,264.6,383.9,327.8z M44.5,277.3h48.3c15.8-35.3,34.5-69.3,55.7-101.6
	c-14.7,3.4-29,8.6-42.5,15.4C72.9,208.5,50.1,240.5,44.5,277.3z M336.3,363.6c-32.3,21.2-66.3,39.8-101.6,55.7v48.3
	c36.8-5.7,68.8-28.4,86.3-61.4C327.7,392.6,332.9,378.4,336.3,363.6L336.3,363.6z M469.3,63.4c-0.3-11.5-9.8-20.7-21.3-20.7
	C337.9,45.8,263.5,88,191.6,188.2c-20.1,28.9-37.7,59.3-52.7,91.1c47.7,8.9,85,46.2,93.9,93.9c31.8-15,62.2-32.7,91.1-52.7
	C424,248.5,466.2,174.1,469.3,63.4z M130.6,381.4c24.8,25.1,24.8,65.4,0,90.5c-19.3,19.3-77.3,31.3-101.3,35.5l-30,5.3l5.3-30
	c4.3-24,16.2-81.9,35.5-101.3C65.4,357.2,105.3,357.2,130.6,381.4z M106.7,426.7c0-5.7-2.2-11.1-6.3-15.1c-8.3-8.3-21.8-8.3-30.2,0
	c-8.1,14.7-13.8,30.6-16.9,47.1c16.5-3.1,32.4-8.8,47.1-16.9C104.4,437.7,106.7,432.3,106.7,426.7z"/>
</svg>
