<?xml version="1.0" encoding="utf-8"?>
<!-- Generator: Adobe Illustrator 24.1.1, SVG Export Plug-In . SVG Version: 6.00 Build 0)  -->
<svg version="1.1" id="Layer_1" xmlns="http://www.w3.org/2000/svg" xmlns:xlink="http://www.w3.org/1999/xlink" x="0px" y="0px"
	 viewBox="0 0 512 512" style="enable-background:new 0 0 512 512;" xml:space="preserve">
<style type="text/css">
	.st0{fill:#FFFFFF;}
</style>
<path class="st0" d="M405.3,106.7h-42.7V85.3c0-35.3-28.7-64-64-64H64c-35.3,0-64,28.7-64,64v320h43.5c-0.5,3.5-0.8,7.1-0.9,10.7
	c0,41.2,33.4,74.7,74.7,74.7S192,457.2,192,416c0-3.6-0.3-7.1-0.9-10.7h129.7c-0.5,3.5-0.8,7.1-0.9,10.7c0,41.2,33.4,74.7,74.7,74.7
	s74.7-33.4,74.7-74.7c0-3.6-0.3-7.1-0.9-10.7H512v-192C511.9,154.5,464.2,106.7,405.3,106.7z M405.3,149.3c35.3,0,64,28.7,64,64
	v21.3H362.7v-85.3H405.3z M149.3,416c0,17.7-14.3,32-32,32s-32-14.3-32-32c0-3.6,0.7-7.3,2-10.7h60
	C148.6,408.7,149.3,412.4,149.3,416z M320,362.7H42.7V85.3C42.7,73.6,52.2,64,64,64h234.7c11.8,0,21.3,9.6,21.3,21.3V362.7z
	 M426.7,416c0,17.7-14.3,32-32,32s-32-14.3-32-32c0-3.6,0.7-7.3,2-10.7h60C426,408.7,426.7,412.4,426.7,416z M362.7,362.7v-85.3
	h106.7v85.3H362.7z"/>
</svg>
