<?xml version="1.0" encoding="utf-8"?>
<!-- Generator: Adobe Illustrator 24.1.1, SVG Export Plug-In . SVG Version: 6.00 Build 0)  -->
<svg version="1.1" id="Layer_1" xmlns="http://www.w3.org/2000/svg" xmlns:xlink="http://www.w3.org/1999/xlink" x="0px" y="0px"
	 viewBox="0 0 629.6 280" style="enable-background:new 0 0 629.6 280;" xml:space="preserve">
<style type="text/css">
	.st0{fill:#45B87C;}
</style>
<g>
	<path class="st0" d="M463,7.5c7.8,0.1,14.4,0.4,20.9,1.1c11.2,1.3,21.9,4.3,32.1,9c14,6.4,26.1,15.4,36.7,26.5
		c14.5,15.1,25.2,32.5,32.6,52c3.9,10.4,6.7,21.1,8.4,32c1.3,8.9,1.9,17.9,1.5,27c-0.6,11.3-3,22.3-7.3,32.8
		c-4.8,11.7-11.6,22.2-20,31.6c-10.7,12-23.3,21.5-37.3,29.3c-16,9-33,15.2-50.8,19.2c-7.9,1.8-15.9,3-24,3.8
		c-6.6,0.6-13.2,0.9-19.8,0.8c-12.5-0.3-24.9-1.9-36.8-5.7c-9.2-2.9-17.9-7-25.6-12.9c-9-6.8-16-15.3-21.4-25.1
		c-5.7-10.3-9.4-21.2-11.6-32.7c-1.5-7.8-2.4-15.7-2.8-23.7c-0.3-6.1-0.2-12.2,0.2-18.3c0.7-11.5,2.4-22.9,5-34.1
		c3.3-13.9,7.9-27.3,14.4-40c6.5-12.7,14.4-24.3,23.8-34.9c7.3-8.3,15.5-15.7,24.7-21.8c10.2-6.8,21.2-11.5,33.2-13.7
		c4.4-0.8,8.9-1.3,13.4-1.7C456.4,7.6,460.3,7.7,463,7.5z"/>
	<g>
		<g>
			<path d="M34.4,273.6v-50.7h17.1v18.5l13.3-18.5h17.7L65,246.1l18.3,27.4H63.6L51.4,254v19.6H34.4z"/>
			<path d="M81.5,248.5V248c0-15.8,12.1-25.9,27.4-25.9c15.6,0,27.4,9.2,27.4,25.4v0.6c0,16-11,26.4-27.8,26.4
				C91.8,274.5,81.5,264.1,81.5,248.5z M118.5,248.5v-0.6c0-8.2-4-12.5-9.6-12.5s-9.5,4.2-9.5,12.5v0.6c0,8.2,3.6,12.7,9.6,12.7
				C114.7,261.2,118.5,256.4,118.5,248.5z"/>
			<path d="M139.7,248.5V248c0-15.8,12.1-25.9,27.4-25.9c15.6,0,27.4,9.2,27.4,25.4v0.6c0,16-11,26.4-27.8,26.4
				C150,274.5,139.7,264.1,139.7,248.5z M176.7,248.5v-0.6c0-8.2-4-12.5-9.6-12.5s-9.5,4.2-9.5,12.5v0.6c0,8.2,3.6,12.7,9.6,12.7
				C172.9,261.2,176.7,256.4,176.7,248.5z"/>
			<path d="M200.7,273.6v-50.7h21.3c14.2,0,21.5,5.9,21.5,16.7v0.3c0,6.9-3.3,10.9-8.2,13.2l11.1,20.6h-17.9l-8.9-16.9h-2.1v16.9
				H200.7z M217.6,245.8h3.2c4.2,0,6.2-1.7,6.2-5.2v-0.3c0-3.3-2.1-4.7-6-4.7h-3.3V245.8z"/>
			<path d="M247.5,273.6l15.9-50.7h22l15.7,50.7H283l-2.1-7.9h-15.4l-2.1,7.9H247.5z M273.2,236.6l-4.7,17.6h9.3L273.2,236.6z"/>
		</g>
		<path d="M77.3,56.5c6.5,0,11.4,0.8,14.9,2.1c4,1.3,7.2,3.4,7.2,5.8c0,2.9-4,5-10.7,5.3c-14.2,1.1-29.1,4.5-42.3,10.5h0.2
			c-1.2,0.8-2.5,1.3-4.2,1.3c-5.2,0-7.7-2.1-7.7-6.6c0-2.6,2.2-5.5,6.5-9C51.2,59.4,63.1,56.5,77.3,56.5z M45.5,140.8
			c0-11.3,4.7-21.3,15.4-31.6c-2.7-3.2-4.7-6.3-4.7-9.5c0-2.9,1.5-5.5,3.7-7.9c1.7-1.8,3.5-2.6,5.5-2.6c2.7,0,4.2,2.9,4.2,6.1
			c0.5,1.3,4,3.9,10.7,7.9c9,6.1,15.2,11.1,19.4,15.5c7,7.1,10.7,14.5,10.9,22.1c0.2,5.5-3.7,11.1-11.7,16.3c-8,5-16.4,7.4-25.6,7.4
			c-8,0-14.7-2.4-20.2-6.8C48,152.6,45.5,147.1,45.5,140.8z M75.6,144.7c4.2,0,8-0.8,10.9-2.6c3.2-1.8,5-3.9,5-6.8
			c0-5.8-6.5-12.1-19.2-18.7c-2,1.8-4,4.7-6,8.4c-2,4-2.7,7.4-2.7,10.8C63.6,141.8,67.6,144.7,75.6,144.7z"/>
		<path d="M140.1,138.4c9-10.5,15.7-16.6,19.7-16.6c5.7,0,9,2.9,10.2,8.4c1.2,5.3-1.7,10.5-6.7,14c-11.2,8.4-22.6,18.2-32.8,29
			c-18.7,19.2-33.1,30.5-43.3,34c-6,1.8-10.7,2.6-14.7,2.6c-4.2,0-6.5-1.1-6.5-3.4c0-2.9,3.2-6.1,9.5-9.5
			C88.6,190.5,111.4,169.4,140.1,138.4z"/>
		<path d="M223.2,153.6c-11.7-2.6-11.9-15.8-10.7-22.4c2-14.5,13.7-30,28.4-30c9.2,0,13.9,7.4,13.9,22.1c0,1.1,0,3.9-0.2,6.1
			c1.7,0.3,4,0.5,9.7,0.5v23.7h-15.9c-17.2,32.1-42.1,48.7-75.1,50c-9.5-0.3-13.4-2.9-12.2-7.6c0.2-2.9,2.5-4.5,6.7-4.7
			C187.1,190.2,223.2,173.6,223.2,153.6z"/>
		<path d="M261.5,129.9c12.7-1.1,19.2-8.7,19.2-22.9c0-5.8-0.7-36.6-2.5-43.1c-0.7-5,1.7-7.4,7-7.4c5,0,8.5,1.3,10.2,3.9
			c2.7,4,4.2,36.3,4.7,47.6c0.2,11.3-2.7,21.3-9,30c-6.2,8.7-16.9,14.7-29.6,15.5V129.9z M197.3,96.4c-4.7,0-6.7-2.6-6.2-7.9
			c0.2-5,5-10,12.9-13.4c25.6-12.4,51-26.9,73.9-41.9c23.9-16.1,37.3-24.2,40.6-25.3c5-1.6,9-2.4,11.9-2.4c5.2,0.8,7.7,2.6,7.2,5.8
			c0,1.3-0.7,2.4-2,3.2c-29.1,20-55.7,36.9-80.4,51.6c-25.1,14.7-44.3,24.8-57.5,30.3H197.3z"/>
	</g>
</g>
</svg>
