<?xml version="1.0" encoding="utf-8"?>
<!-- Generator: Adobe Illustrator 24.1.1, SVG Export Plug-In . SVG Version: 6.00 Build 0)  -->
<svg version="1.1" id="Layer_1" xmlns="http://www.w3.org/2000/svg" xmlns:xlink="http://www.w3.org/1999/xlink" x="0px" y="0px"
	 viewBox="0 0 568 280" style="enable-background:new 0 0 568 280;" xml:space="preserve">
<style type="text/css">
	.st0{fill:#45B87C;}
</style>
<g>
	<path class="st0" d="M432,8.4c7.8,0.1,14.4,0.4,20.9,1.1c11.2,1.3,21.9,4.3,32.1,9c14,6.4,26.1,15.4,36.7,26.5
		c14.5,15.1,25.2,32.5,32.6,52c3.9,10.4,6.7,21.1,8.4,32c1.3,8.9,1.9,17.9,1.5,27c-0.6,11.3-3,22.3-7.3,32.8
		c-4.8,11.7-11.6,22.2-20,31.6c-10.7,12-23.3,21.5-37.3,29.3c-16,9-33,15.2-50.8,19.2c-7.9,1.8-15.9,3-24,3.8
		c-6.6,0.6-13.2,0.9-19.8,0.8c-12.5-0.3-24.9-1.9-36.8-5.7c-9.2-2.9-17.9-7-25.6-12.9c-9-6.8-16-15.3-21.4-25.1
		c-5.7-10.3-9.4-21.2-11.6-32.7c-1.5-7.8-2.4-15.7-2.8-23.7c-0.3-6.1-0.2-12.2,0.2-18.3c0.7-11.5,2.4-22.9,5-34.1
		c3.3-13.9,7.9-27.3,14.4-40s14.4-24.3,23.8-34.9c7.3-8.3,15.5-15.7,24.7-21.8c10.2-6.8,21.2-11.5,33.2-13.7
		c4.4-0.8,8.9-1.3,13.4-1.7C425.4,8.5,429.3,8.6,432,8.4z"/>
	<g>
		<path d="M46.3,57.4c6.5,0,11.4,0.8,14.9,2.1c4,1.3,7.2,3.4,7.2,5.8c0,2.9-4,5-10.7,5.3c-14.2,1.1-29.1,4.5-42.3,10.5h0.2
			c-1.2,0.8-2.5,1.3-4.2,1.3c-5.2,0-7.7-2.1-7.7-6.6c0-2.6,2.2-5.5,6.5-9C20.2,60.3,32.1,57.4,46.3,57.4z M14.5,141.7
			c0-11.3,4.7-21.3,15.4-31.6c-2.7-3.2-4.7-6.3-4.7-9.5c0-2.9,1.5-5.5,3.7-7.9c1.7-1.8,3.5-2.6,5.5-2.6c2.7,0,4.2,2.9,4.2,6.1
			c0.5,1.3,4,3.9,10.7,7.9c9,6.1,15.2,11.1,19.4,15.5c7,7.1,10.7,14.5,10.9,22.1c0.2,5.5-3.7,11.1-11.7,16.3c-8,5-16.4,7.4-25.6,7.4
			c-8,0-14.7-2.4-20.2-6.8C17,153.5,14.5,148,14.5,141.7z M44.6,145.6c4.2,0,8-0.8,10.9-2.6c3.2-1.8,5-3.9,5-6.8
			c0-5.8-6.5-12.1-19.2-18.7c-2,1.8-4,4.7-6,8.4c-2,4-2.7,7.4-2.7,10.8C32.6,142.7,36.6,145.6,44.6,145.6z"/>
		<path d="M109.1,139.3c9-10.5,15.7-16.6,19.7-16.6c5.7,0,9,2.9,10.2,8.4c1.2,5.3-1.7,10.5-6.7,14c-11.2,8.4-22.6,18.2-32.8,29
			c-18.7,19.2-33.1,30.5-43.3,34c-6,1.8-10.7,2.6-14.7,2.6c-4.2,0-6.5-1.1-6.5-3.4c0-2.9,3.2-6.1,9.5-9.5
			C57.6,191.4,80.4,170.3,109.1,139.3z"/>
		<path d="M192.2,154.5c-11.7-2.6-11.9-15.8-10.7-22.4c2-14.5,13.7-30,28.4-30c9.2,0,13.9,7.4,13.9,22.1c0,1.1,0,3.9-0.2,6.1
			c1.7,0.3,4,0.5,9.7,0.5v23.7h-15.9c-17.2,32.1-42.1,48.7-75.1,50c-9.5-0.3-13.4-2.9-12.2-7.6c0.2-2.9,2.5-4.5,6.7-4.7
			C156.1,191.1,192.2,174.5,192.2,154.5z"/>
		<path d="M230.5,130.8c12.7-1.1,19.2-8.7,19.2-22.9c0-5.8-0.7-36.6-2.5-43.1c-0.7-5,1.7-7.4,7-7.4c5,0,8.5,1.3,10.2,3.9
			c2.7,4,4.2,36.3,4.7,47.6c0.2,11.3-2.7,21.3-9,30c-6.2,8.7-16.9,14.7-29.6,15.5L230.5,130.8L230.5,130.8z M166.3,97.3
			c-4.7,0-6.7-2.6-6.2-7.9c0.2-5,5-10,12.9-13.4c25.6-12.4,51-26.9,73.9-41.9C270.8,18,284.2,9.9,287.5,8.8c5-1.6,9-2.4,11.9-2.4
			c5.2,0.8,7.7,2.6,7.2,5.8c0,1.3-0.7,2.4-2,3.2c-29.1,20-55.7,36.9-80.4,51.6c-25.1,14.7-44.3,24.8-57.5,30.3
			C166.7,97.3,166.3,97.3,166.3,97.3z"/>
		<g>
			<path d="M59.7,244.3v-20.7h5.4v8.5l6.7-8.5h5.6l-7.9,9.7l8.3,11.1h-6.2l-6.5-9v9h-5.4V244.3z"/>
			<path d="M89.8,234.1v-0.2c0-6.3,4.7-10.6,10.8-10.6c6.3,0,10.8,4.1,10.8,10.4v0.2c0,6.3-4.3,10.7-10.9,10.7
				C94,244.6,89.8,240.2,89.8,234.1z M105.9,234v-0.2c0-3.8-2-6.3-5.2-6.3s-5.3,2.4-5.3,6.3v0.2c0,2,0.5,3.5,1.5,4.7
				c1,1.1,2.3,1.7,3.8,1.7C103.9,240.4,105.9,237.9,105.9,234z"/>
			<path d="M124.3,234.1v-0.2c0-6.3,4.7-10.6,10.8-10.6c6.3,0,10.8,4.1,10.8,10.4v0.2c0,6.3-4.3,10.7-10.9,10.7
				C128.4,244.6,124.3,240.2,124.3,234.1z M140.3,234v-0.2c0-3.8-2-6.3-5.2-6.3s-5.3,2.4-5.3,6.3v0.2c0,2,0.5,3.5,1.5,4.7
				c1,1.1,2.3,1.7,3.8,1.7C138.4,240.4,140.3,237.9,140.3,234z"/>
			<path d="M159.8,244.3v-20.7h7.8c5.1,0,8.2,2.1,8.2,6.4v0.1c0,3-1.7,4.7-4,5.5l5.2,8.7h-5.7l-4.6-7.7H165v7.7H159.8z M165.2,233
				h2.2c2.2,0,3.2-0.9,3.2-2.7v-0.1c0-1.9-1.2-2.6-3.2-2.6h-2.3v5.4H165.2z"/>
			<path d="M188.8,244.3l6.7-20.7h7l6.6,20.7h-5.7l-1.2-4.2H195l-1.2,4.2H188.8z M198.7,227.9l-2.5,8.4h5L198.7,227.9z"/>
		</g>
	</g>
</g>
</svg>
