<?xml version="1.0" encoding="utf-8"?>
<!-- Generator: Adobe Illustrator 24.1.1, SVG Export Plug-In . SVG Version: 6.00 Build 0)  -->
<svg version="1.1" id="Layer_1" xmlns="http://www.w3.org/2000/svg" xmlns:xlink="http://www.w3.org/1999/xlink" x="0px" y="0px"
	 viewBox="0 0 483.2 162.4" style="enable-background:new 0 0 483.2 162.4;" xml:space="preserve">
<style type="text/css">
	.st0{fill:#1E40AF;}
</style>
<g>
	<path d="M159.1,84.9c-6.2-7-11.5-12.7-16.6-18.6c-6.1-7-5.5-14.9,1.4-21.1c9.6-8.5,19.2-17,28.8-25.5c5.8-5,13.8-4.8,18.9,0.4
		c5.5,5.7,5.6,14.1-0.1,19.6c-5.3,5.1-10.8,9.9-16.3,14.7c-2.4,2.1-3.2,3.4-0.5,6.2c6.7,7.1,13,14.7,19.5,22
		c1.9,2.1,12.4,3.6,14.4,2.1c1.5-1.1,0.8-2.8,0.8-4.2c0-16.8,0-33.7,0.1-50.5c0-6.3,3.5-11.2,8.8-13.2c5.4-2,11.1-0.7,15.1,3.6
		c2.8,3,3.7,6.6,3.8,10.5c0,21.8,0,43.6,0,65.5c0,11.5-5,16.4-16.5,16.5c-8.3,0-16.7-0.4-25,0.1c-7.8,0.5-14.1-1.6-18.7-8
		c-1.6-2.3-2.9-3.3-4.6,0.3c-2.7,5.5-7.8,7.3-13.7,7.2c-16.8,0-33.6,0-50.5-0.1c-2.8,0-4.9,0.7-7.1,2.7c-9.7,9.1-19.7,18-29.5,26.9
		c-6.7,6.1-15.3,6.1-20.9,0c-5-5.4-4.1-14.1,2.1-20c4.2-4,8.5-7.9,12.8-11.8c-2-2.3-4.6-2.8-6.6-4.2c-15.5-10-22.6-29-17.3-46.7
		C46.8,41.8,63.2,29.8,81.7,30c18.3,0.2,34.4,12.8,39.1,30.8c1.8,6.7,1.9,13.5,0.2,20.2c-0.4,1.5-1.8,3.9,1.6,3.9
		C134.3,84.9,146.1,84.9,159.1,84.9z M80.5,84.8c7.9,0.3,14-5.6,14.2-13.5c0.2-7.2-5.7-13.5-12.9-13.9c-7.7-0.4-14.2,5.5-14.4,13.3
		C67.1,78.4,72.9,84.6,80.5,84.8z"/>
	<path class="st0" d="M377.8,146.1c-36.3-0.2-65.4-29.4-65.2-65.7c0.1-36.1,29.7-64.8,66.7-64.7c35.5,0.1,64.3,29.9,64.1,66.2
		C443.2,117.4,413.6,146.3,377.8,146.1z M369,93.4c0,4.7,0,9.3,0,14c0,0.3,0,0.7,0,1c0.2,6.9,5.1,12.1,11.4,12
		c6.4-0.1,11.6-5.1,11.7-11.8c0.2-10,0.2-20,0-29.9c-0.2-6.9-5.4-11.8-11.8-11.7c-6.6,0.1-11.2,4.8-11.3,12
		C368.9,83.7,369,88.5,369,93.4z M372.7,59.3c2.8-0.2,7.1,0.7,11.4-0.5c5.2-1.6,8.7-6.8,8.2-12.2c-0.6-5.7-5.3-10.4-10.8-10.7
		c-5.5-0.4-11.4,3.3-11.8,8.6c-0.4,5.3-2.8,6.3-7.2,5.6c-0.6-0.1-1.3,0-2,0c-2.6,0.4-4.5,1.5-4.4,4.4c0,3,1.7,4.7,4.6,4.8
		C364.1,59.4,367.6,59.3,372.7,59.3z"/>
	<path d="M277.6,64.1c0,11.3,0,22.6,0,33.9c0,8.6-5.5,14.7-13.4,14.9c-7.9,0.2-14-5.7-14.4-14.1c-0.2-5.6,0-11.3,0-17
		c0-16.6-0.1-33.3,0-49.9c0-8.9,4.7-14.8,12.1-15.7c8.5-1,15.5,4.8,15.6,13.4C277.6,41.1,277.5,52.6,277.6,64.1
		C277.5,64.1,277.5,64.1,277.6,64.1z"/>
	<path d="M154.5,23.7c0.2,1.7-1.6,3.4-3.3,4.9c-4.6,4.3-9.3,8.5-14.1,12.5c-3.7,3.1-7.6,3.1-10.1,0.2c-2.8-3.1-2.2-7,1.6-10.4
		c4.9-4.4,9.9-8.8,14.8-13.2c2.2-2,4.7-2.4,7.3-1.1C153.1,17.9,154.3,20,154.5,23.7z"/>
</g>
</svg>
