<?xml version="1.0" encoding="utf-8"?>
<!-- Generator: Adobe Illustrator 24.1.1, SVG Export Plug-In . SVG Version: 6.00 Build 0)  -->
<svg version="1.1" id="Layer_1" xmlns="http://www.w3.org/2000/svg" xmlns:xlink="http://www.w3.org/1999/xlink" x="0px" y="0px"
	 viewBox="0 0 360.4 256.4" style="enable-background:new 0 0 360.4 256.4;" xml:space="preserve">
<style type="text/css">
	.st0{fill:#57BE6D;}
	.st1{fill:#F8931F;}
</style>
<circle class="st0" cx="-410.5" cy="34.7" r="39.6"/>
<circle class="st1" cx="-410.5" cy="132.6" r="39.6"/>
<g>
	<path class="st0" d="M132.7,189.3c0,14-3,23.7-9.3,28.8c-6.3,5.1-33.2,11.8-51.5,11.8l-12-24.1c6.7,0,37.1-1.6,40.9-4.9
		c3.9-3.2,5.7-8.1,5.7-14.6V177H76.8c-12.8,0-21.9-2.2-27.2-6.7c-24.9-20.5-18.8-90.8,33.2-90.8h49.9V189.3z M84.1,102.4
		c-31.4,0-31.6,48-9.9,48h32.4v-48H84.1z"/>
	<path class="st0" d="M175.1,135.2c0,5.5,1.8,9.5,5.3,11.8c2.2,1.4,6.1,2.6,12,3.4h4.1v26.3h-4.3c-15.6,0-26.6-2.8-33.2-8.5
		c-6.7-5.9-9.9-14.8-9.9-27V26.6h26.1V135.2z"/>
	<path class="st0" d="M238.1,135.2c0,13.6-4.7,24.1-14.4,31.4c-8.9,6.9-19.9,10.1-32.4,10.1h-3v-26.3c9.9,0,16.2-0.6,18.8-1.6
		c4.7-1.8,6.9-6.5,6.9-13.6V78.9h24.1V135.2z"/>
	<rect x="212.8" y="35.5" class="st1" width="23.3" height="21.7"/>
	<g>
		<path class="st1" d="M175.2,220.8c0,1.5-0.7,2.3-2.2,2.3H169c-1.3,0-1.9-0.6-2.5-1.9l-7.5-15.1c-0.6-1.3-1.4-3-1.7-4.4h-0.4
			c0.2,1.5,0.3,3,0.3,4.5V223h-6v-26.1c0-1.5,0.8-2.2,2.3-2.2h3.8c1.3,0,1.9,0.6,2.5,1.8l7.2,14.7c0.6,1.2,1.4,3,2.1,4.5h0.4
			c-0.1-1.6-0.2-3.2-0.2-4.7v-16.3h5.9V220.8z"/>
		<path class="st1" d="M204.3,208.9c0,11.4-3.2,14.7-12.2,14.7c-9,0-12.1-3.3-12.1-14.7s3.2-14.8,12.1-14.8
			C201.1,194.1,204.3,197.5,204.3,208.9z M186.6,208.9c0,7.5,1.3,9.6,5.6,9.6c4.3,0,5.6-2.1,5.6-9.6s-1.3-9.7-5.6-9.7
			C187.8,199.2,186.6,201.3,186.6,208.9z"/>
		<path class="st1" d="M240.7,221.3c-0.2,1.1-1.1,1.7-2.3,1.7h-6c-1.1,0-2.1-0.7-2.2-1.8l-3.1-18.5c-0.2-1.2-0.4-2.4-0.5-3.6h-0.8
			c-0.2,1.2-0.3,2.4-0.5,3.6l-3,18.5c-0.2,1.1-1.1,1.8-2.3,1.8h-6c-1.1,0-2.1-0.7-2.3-1.7l-4.5-26.6h6.4l2.8,19.7
			c0.2,1.2,0.3,2.6,0.4,4.1h0.8c0.2-1.3,0.4-2.8,0.6-4.1l3.1-17.8c0.2-1.1,1-1.9,2.2-1.9h5.4c1.2,0,2,0.8,2.2,1.9l3,17.8
			c0.2,1.3,0.4,2.8,0.6,4.1h0.9c0.1-1.3,0.2-2.8,0.4-4l2.8-19.8h6.4L240.7,221.3z"/>
	</g>
	<polygon class="st1" points="324.9,126.4 294.8,143.8 264.7,161.1 264.7,126.4 264.7,91.6 294.8,109 	"/>
</g>
</svg>
